<?xml version="1.0" encoding="UTF-8" standalone="no"?>
<!-- Created with Inkscape (http://www.inkscape.org/) -->

<svg
   width="63.241535mm"
   height="73.747528mm"
   viewBox="0 0 63.241535 73.747528"
   version="1.1"
   id="svg5"
   xml:space="preserve"
   xmlns="http://www.w3.org/2000/svg"
   xmlns:svg="http://www.w3.org/2000/svg"><defs
     id="defs2" /><g
     id="layer1"
     transform="translate(81.971918,-142.59704)"><path
       id="rect234-5"
       style="fill:#f1f1e6;;stroke-width:0.264583"
       d="m -51.290893,142.59705 c -3.13301,0 -5.65547,4.20254 -5.65547,9.42268 v 0.11885 c 0.24646,1.05956 0.38292,2.21193 0.38292,3.41995 v 37.31968 c 0,0.37511 -0.0144,0.74401 -0.0398,1.10743 0.79132,3.60913 2.86562,6.17223 5.31234,6.17223 h 1.99316 c 3.13301,0 5.65495,-4.20254 5.65495,-9.42268 v -38.71546 c 0,-5.22014 -2.52194,-9.42268 -5.65495,-9.42268 z m -5.31234,51.38859 c -0.22196,-1.01235 -0.34313,-2.10696 -0.34313,-3.25045 v -38.59661 c -0.81855,-3.51902 -2.86456,-6.00273 -5.272547,-6.00273 h -5.362464 c -3.133011,0 -5.655469,4.20255 -5.655469,9.42268 v 37.31968 c 0,5.22014 2.522458,9.42268 5.655469,9.42268 h 5.362464 c 2.907877,0 5.288397,-3.62123 5.615677,-8.31525 z m 19.24637,-49.07866 c -3.13301,0 -5.65547,4.20255 -5.65547,9.42268 v 30.80381 c 0,5.22013 2.52246,9.42268 5.65547,9.42268 3.13301,0 5.65547,-4.20255 5.65547,-9.42268 v -30.80381 c 0,-5.22013 -2.52246,-9.42268 -5.65547,-9.42268 z m -13.37024,5.73815 h 0.80253 v 7.21765 h 0.92708 v 1.24179 h -2.97398 v -1.24179 h 1.15445 v -5.59087 l -1.01648,1.11931 -0.38912,-1.11931 z m 13.20798,4.92218 h 2.16317 v 11.61583 h 2.49701 v 1.99833 h -8.01088 v -1.99833 h 3.10937 v -8.99738 l -2.73834,1.80144 -1.04851,-1.80144 z m -27.164237,2.89853 c 1.471735,0 2.583419,0.62558 3.334681,1.87741 0.751266,1.24521 1.127066,3.00061 1.127066,5.26583 0,2.27846 -0.3758,4.04716 -1.127066,5.30562 -0.751262,1.25845 -1.862946,1.88722 -3.334681,1.88722 -1.477892,0 -2.592203,-0.62877 -3.343465,-1.88722 -0.745104,-1.25846 -1.117761,-3.02716 -1.117761,-5.30562 0,-2.26522 0.372657,-4.02062 1.117761,-5.26583 0.751262,-1.25183 1.865573,-1.87741 3.343465,-1.87741 z m 0,1.94717 c -0.69584,0 -1.222074,0.40056 -1.579231,1.202 -0.351,0.79481 -0.526583,2.12626 -0.526583,3.99407 0,1.31806 0.05818,2.34471 0.175183,3.07991 l 3.399276,-7.5308 c -0.166263,-0.27156 -0.369625,-0.4636 -0.609782,-0.5762 -0.240158,-0.11259 -0.526337,-0.16898 -0.858863,-0.16898 z m 1.985926,2.61276 -3.306775,7.3024 c 0.160105,0.19208 0.347747,0.32773 0.563273,0.40721 0.221684,0.0795 0.474314,0.11937 0.757576,0.11937 0.701999,0 1.225606,-0.39736 1.570447,-1.19217 0.351,-0.79482 0.526583,-2.14595 0.526583,-4.0535 0,-1.05313 -0.03721,-1.91434 -0.111104,-2.58331 z m 11.315071,0.76275 c 1.15301,0 2.02419,0.45556 2.61276,1.36736 0.58856,0.90696 0.88263,2.18551 0.88263,3.83542 0,1.65956 -0.29407,2.94775 -0.88263,3.86436 -0.58857,0.91662 -1.45975,1.37511 -2.61276,1.37511 -1.15783,0 -2.03091,-0.45849 -2.61948,-1.37511 -0.58374,-0.91661 -0.8754,-2.2048 -0.8754,-3.86436 0,-1.64991 0.29166,-2.92846 0.8754,-3.83542 0.58857,-0.9118 1.46165,-1.36736 2.61948,-1.36736 z m 0,1.418 c -0.54515,0 -0.95732,0.29217 -1.23713,0.87591 -0.27499,0.57892 -0.41238,1.54842 -0.41238,2.90887 0,0.96004 0.0458,1.70778 0.13746,2.24327 l 2.66288,-5.48493 c -0.13025,-0.1978 -0.28934,-0.33812 -0.47749,-0.42013 -0.18814,-0.082 -0.41283,-0.12299 -0.67334,-0.12299 z m 1.55598,1.90324 -2.59054,5.31906 c 0.12543,0.1399 0.27246,0.23873 0.44131,0.29662 0.17368,0.0579 0.37133,0.0868 0.59325,0.0868 0.54997,0 0.96025,-0.28925 1.23042,-0.86817 0.27498,-0.57891 0.41237,-1.56339 0.41237,-2.95279 0,-0.76706 -0.0289,-1.39428 -0.0868,-1.88154 z m 10.77092,7.54218 c 1.153,0 2.02367,0.45608 2.61224,1.36787 0.58856,0.90697 0.88315,2.18551 0.88315,3.83543 0,1.65956 -0.29459,2.94774 -0.88315,3.86436 -0.58857,0.91662 -1.45924,1.37459 -2.61224,1.37459 -1.15784,0 -2.03092,-0.45797 -2.61948,-1.37459 -0.58374,-0.91662 -0.87592,-2.2048 -0.87592,-3.86436 0,-1.64992 0.29218,-2.92846 0.87592,-3.83543 0.58856,-0.91179 1.46164,-1.36787 2.61948,-1.36787 z m 0,1.41851 c -0.54515,0 -0.95785,0.29218 -1.23766,0.87592 -0.27498,0.57892 -0.41237,1.54841 -0.41237,2.90887 0,0.96003 0.0458,1.70777 0.13746,2.24327 l 2.6634,-5.48545 c -0.13026,-0.1978 -0.28986,-0.3376 -0.47801,-0.41962 -0.18815,-0.082 -0.41231,-0.12299 -0.67282,-0.12299 z m -11.3559,1.78129 h 2.16266 v 11.61583 h 2.497 v 1.99833 h -8.01088 v -1.99833 h 3.10989 v -8.99738 l -2.73833,1.80144 -1.04904,-1.80144 z m 12.91187,0.12196 -2.59054,5.31905 c 0.12544,0.13991 0.27247,0.23873 0.44132,0.29663 0.17367,0.0579 0.37133,0.0868 0.59325,0.0868 0.54997,0 0.96025,-0.28976 1.23041,-0.86868 0.27499,-0.57892 0.41238,-1.56287 0.41238,-2.95227 0,-0.76707 -0.0289,-1.39429 -0.0868,-1.88154 z m -27.374036,2.57917 h 2.162659 v 11.61583 h 2.497007 v 1.99832 h -8.010366 v -1.99832 h 3.109371 v -8.99739 l -2.738334,1.80144 -1.049031,-1.80144 z" /><path
       style="fill:#492149;fill-opacity:0.89;stroke-width:0.160801"
       d="m -53.060993,203.31985 c -0.99798,0 -1.80657,-0.72943 -1.80657,-1.62859 v -14.6524 c 0,-0.79659 0.63799,-1.47626 1.50875,-1.60509 l 31.01801,-4.65742 v -8.3899 h -1.6358 c -0.99527,0 -1.8052,-0.72851 -1.8052,-1.62767 0,-0.89901 0.80993,-1.62874 1.8052,-1.62874 h 3.44101 c 0.99527,0 1.80521,0.72973 1.80521,1.62874 v 11.39615 c 0,0.79658 -0.63528,1.47626 -1.50875,1.60508 l -31.0153,4.65742 v 13.27399 c 0,0.899 -0.80858,1.62843 -1.80656,1.62843 z"
       id="path1065-9" /><path
       style="fill:#943e5c;fill-opacity:0.95;stroke-width:0.160801"
       d="m -24.151423,175.64302 c 0,0.89915 -0.80994,1.62767 -1.80521,1.62767 h -54.208896 c -0.997811,0 -1.806393,-0.72852 -1.806393,-1.62767 v -9.76833 c 0,-0.899 0.808582,-1.62874 1.806393,-1.62874 h 54.208896 c 0.99527,0 1.80521,0.72974 1.80521,1.62874 z"
       id="path1067-2" /><rect
       x="-56.675144"
       y="196.80763"
       style="fill:#000020;stroke-width:0.160801"
       width="7.2289596"
       height="19.536949"
       id="rect1069-2" /></g></svg>
